<?xml version="1.0" encoding="utf-8"?>
<!-- Generator: Adobe Illustrator 23.0.1, SVG Export Plug-In . SVG Version: 6.00 Build 0)  -->
<svg version="1.1" id="Layer_1" xmlns="http://www.w3.org/2000/svg" xmlns:xlink="http://www.w3.org/1999/xlink" x="0px" y="0px"
	 viewBox="0 0 720 720" style="enable-background:new 0 0 720 720;" xml:space="preserve">
<style type="text/css">
	.st0{fill:none;stroke:#000000;stroke-width:11;stroke-linecap:round;stroke-linejoin:round;stroke-miterlimit:10;}
	.st1{fill:none;}
</style>
<path d="M222.01,552.01c-2.69-2.04-3.59-4.71-3.58-8.09c0.07-56.75,0.05-113.49,0.06-170.24c0-1.24,0.06-2.51,0.33-3.71
	c0.65-2.8,2.63-4.32,5.38-4.34c2.74-0.02,4.82,1.42,5.44,4.24c0.35,1.56,0.39,3.21,0.39,4.83c0.02,53.62,0.02,107.24,0.02,160.86
	c0,1.6,0,3.2,0,5c86.66,0,172.98,0,259.75,0c0.06-1.27,0.17-2.58,0.17-3.89c0.01-75.37-0.18-150.74,0.15-226.11
	c0.07-16.65-12.18-30.46-30.45-30.15c-20.99,0.35-42,0.08-62.99,0.08c-6.19,0-7.94-1.75-7.95-8.06c-0.01-21-0.41-42.01,0.12-62.99
	c0.43-16.96-12.32-30.41-30.31-30.28c-41.37,0.28-82.74,0.09-124.12,0.09c-1.34,0-2.68,0-4.38,0c0,2,0,3.59,0,5.19
	c0,53.62,0,107.24-0.02,160.86c0,1.61-0.04,3.26-0.38,4.83c-0.62,2.81-2.69,4.28-5.43,4.26c-2.74-0.01-4.75-1.52-5.39-4.32
	c-0.3-1.32-0.35-2.72-0.35-4.08c-0.02-56.5-0.02-112.99-0.01-169.49c0-6.85,1.6-8.46,8.29-8.47c44.25,0,88.49,0.06,132.74-0.04
	c11.77-0.03,21.65,4.02,29.93,12.31c33.21,33.25,66.42,66.5,99.69,99.7c8.32,8.3,12.41,18.28,12.41,29.94
	c0.03,78.12,0,156.24,0.05,234.36c0,3.25-1.03,5.78-3.57,7.72C406.01,552.01,314.01,552.01,222.01,552.01z M460.72,269.08
	c-19.98-19.99-40.18-40.19-60.13-60.14c0,19.63,0,39.87,0,60.14C421.04,269.08,441.19,269.08,460.72,269.08z"/>
</svg>
