<?xml version="1.0" encoding="utf-8"?>
<!-- Generator: Adobe Illustrator 26.0.2, SVG Export Plug-In . SVG Version: 6.00 Build 0)  -->
<svg version="1.1" id="Layer_1" xmlns="http://www.w3.org/2000/svg" xmlns:xlink="http://www.w3.org/1999/xlink" x="0px" y="0px"
	 viewBox="0 0 720 720" style="enable-background:new 0 0 720 720;" xml:space="preserve">
<style type="text/css">
	.st0{fill:#004654;}
	.st1{fill:#004655;}
	.st2{fill:#FFFFFF;}
	.st3{fill:none;stroke:#8D6F00;stroke-miterlimit:10;}
	.st4{fill:#007781;}
	.st5{fill:none;stroke:#F4B352;stroke-miterlimit:10;}
	.st6{fill:#F4B352;}
	.st7{fill:#27274C;}
	.st8{fill:#007782;}
	.st9{fill:#09B0B9;}
	.st10{fill:#FFB137;}
	.st11{fill:#7DCBAA;}
	.st12{fill:none;stroke:#FFFFFF;stroke-width:2.2182;stroke-miterlimit:10;}
	.st13{clip-path:url(#SVGID_00000147920543344781840980000012832732748772045459_);}
	.st14{fill:#FDEDD3;}
	.st15{fill:#FDEFD9;}
	.st16{fill:#BEE2D4;}
	.st17{fill:#C6E6D9;}
	.st18{fill:#E6D1C7;}
	.st19{fill:#A37161;}
	.st20{fill:#AF8375;}
	.st21{fill:#D0C0D8;}
	.st22{clip-path:url(#SVGID_00000125569330157931943680000008294981408275840698_);}
	.st23{fill:none;stroke:#F4FAF8;stroke-width:1.6778;stroke-miterlimit:10;}
	.st24{fill:#176F73;}
	.st25{fill:#348185;}
	.st26{fill:#DDC5B9;}
	.st27{fill:#72D4D4;}
	.st28{clip-path:url(#SVGID_00000048480412681134111200000012968395512047889296_);}
	.st29{fill:#6F5752;}
	.st30{fill:none;stroke:#FCE4AB;stroke-width:1.7491;stroke-miterlimit:10;}
	.st31{fill:#5A3F39;}
	.st32{fill:#7DCAA9;}
	.st33{clip-path:url(#SVGID_00000001637046644873460280000007049124552373649037_);}
	.st34{clip-path:url(#SVGID_00000155147267943558198640000009095192203397157264_);}
	.st35{clip-path:url(#SVGID_00000061469862617500646390000010359876437925306524_);}
	.st36{clip-path:url(#SVGID_00000140725954013390996450000004260925656929524369_);}
	.st37{clip-path:url(#SVGID_00000128448780471420774410000006982771644404685726_);}
	.st38{clip-path:url(#SVGID_00000111909738862869725540000017954493722222221245_);}
	.st39{clip-path:url(#SVGID_00000049931974901481464030000008590414777388528809_);}
	.st40{clip-path:url(#SVGID_00000000209911723729690810000008107174900460331198_);}
	.st41{clip-path:url(#SVGID_00000163776862776732484130000011982996141639754122_);}
	.st42{fill:#00ADB6;}
	.st43{fill:#FFB021;}
	.st44{fill:#F4B248;}
	.st45{fill:#FFB237;}
	.st46{fill:#09B1BA;}
	.st47{fill:none;stroke:#EC9D01;stroke-width:1.666;stroke-miterlimit:10;}
</style>
<g>
	<path d="M316.5,402.4c0-78,134.4-55.1,134.4-111.6c0-41.4-23.7-48.7-124.9-48.7c-28.9,0-73.2,4.3-105.5,9v-41.4
		c35.3-4.7,84.4-7.8,120.6-7.8c105.1,0,158.5,19,158.5,90c0,95.2-151.2,58.6-151.2,118h-31.4C316.5,407.2,316.5,405,316.5,402.4z
		 M303.6,490.7c0-15.1,13.8-27.1,28.9-27.1s29.3,12.1,29.3,27.1c0,14.6-13.4,27.1-29.3,27.1C317.4,517.9,303.6,505.4,303.6,490.7z"
		/>
</g>
</svg>
