<?xml version="1.0" encoding="utf-8"?>
<!-- Generator: Adobe Illustrator 23.0.1, SVG Export Plug-In . SVG Version: 6.00 Build 0)  -->
<svg version="1.1" id="Layer_1" xmlns="http://www.w3.org/2000/svg" xmlns:xlink="http://www.w3.org/1999/xlink" x="0px" y="0px"
	 viewBox="0 0 720 720" style="enable-background:new 0 0 720 720;" xml:space="preserve">
<style type="text/css">
	.st0{fill:none;stroke:#000000;stroke-width:11;stroke-linecap:round;stroke-linejoin:round;stroke-miterlimit:10;}
	.st1{fill:none;}
</style>
<g>
	<path class="st0" d="M224.86,269.78c3.26-15.93,15.19-50.1,34.63-72.12"/>
	<path class="st0" d="M393.33,139.52c0,0,22.46-4.26,50.54,28.95c28.08,33.21,81.43,74.07,81.43,85.99
		c0,11.92,17.33,89.4,20.14,95.36s16.36,14.47-5.17,46.83S415.8,580.66,361.51,580.66c-46.43,0-131.87-82.18-155.64-107.42
		c-4.03-4.28-6.28-6.77-6.28-6.77s-27.14-28.95-31.82-116.65c0,0,58.97-74.07,61.77-90.25c2.03-11.72,9.47-36.84,21.6-53.04
		c4.61-6.16,9.91-11.03,15.84-13.37C288.5,184.64,393.33,139.52,393.33,139.52z"/>
	<path class="st0" d="M259.49,206.78c0,0,41.18-11.07,48.67,0c7.49,11.07,29.02,136.23,29.02,160.92s-25.27,66.41-38.84,82.59"/>
	<path class="st0" d="M320.65,205.74c0,0-0.94-28.95,58.03-56.19"/>
	<path class="st0" d="M523.28,251.19c0,0-13.88,17.74-35.41,26.25s-68.33,79.86-94.53,85.05s-58.91,28.53-69.17,47.03"/>
	<path class="st0" d="M428.97,362.5c0,0,97.53,10.69,112.7-1.14c15.17-11.83-74.38,71.9-112.7,129.8s-50.29,83.55-50.29,83.55"/>
	<path class="st0" d="M201.9,468.53c0,0,85.8-7,91.41,0c5.62,7,54.29,86.29,53.35,90.55c-0.94,4.26,0,10.22,0,10.22"/>
</g>
</svg>
