<?xml version="1.0" encoding="utf-8"?>
<!-- Generator: Adobe Illustrator 23.0.1, SVG Export Plug-In . SVG Version: 6.00 Build 0)  -->
<svg version="1.1" id="Layer_1" xmlns="http://www.w3.org/2000/svg" xmlns:xlink="http://www.w3.org/1999/xlink" x="0px" y="0px"
	 viewBox="0 0 720 720" style="enable-background:new 0 0 720 720;" xml:space="preserve">
<style type="text/css">
	.st0{fill:none;stroke:#000000;stroke-width:11;stroke-linecap:round;stroke-linejoin:round;stroke-miterlimit:10;}
	.st1{fill:none;}
</style>
<g>
	<path d="M438.88,168c11.84,6.49,15.62,17.94,17.88,30.01c3.74,19.96-0.15,39.02-8.4,57.23c-7.2,15.9-14.93,31.56-22.47,47.31
		c-1.94,4.06-5.19,5.44-8.42,3.76c-2.98-1.55-3.69-4.78-1.8-8.78c7.63-16.12,15.58-32.08,22.86-48.35
		c7.9-17.65,10.83-36.07,5.54-55.08c-1.3-4.65-3.88-8.95-5.87-13.41c-0.42,0.11-0.84,0.22-1.26,0.32
		c-4.78,9.96-9.57,19.91-14.34,29.87c-18.31,38.24-36.58,76.5-54.96,114.71c-1.14,2.38-1.14,4.21,0.02,6.56
		c4.66,9.38,9.1,18.87,13.63,28.32c0.58,1.2,1.23,2.37,2.13,4.08c0.9-1.72,1.59-2.96,2.2-4.25c5.9-12.52,11.75-25.06,17.71-37.55
		c0.73-1.52,1.74-3.55,3.06-3.99c1.87-0.62,4.73-0.73,6.12,0.32c1.4,1.06,1.85,3.77,2.09,5.83c0.14,1.18-0.93,2.52-1.52,3.76
		c-7.21,15.35-14.34,30.74-21.74,46c-1.35,2.78-1.07,4.81,0.38,7.23c4.12,6.88,9.5,9.84,17.18,8.63
		c51.47-8.1,89.13,23.95,104.38,61.35c5.43,13.32,8.84,27.08,7.35,41.58c-1.75,16.97-10.56,30.15-23.21,40.97
		c-10.67,9.12-22.98,14.84-36.94,16.85c-0.72,0.1-1.4,0.47-2.1,0.71c-4.75,0-9.5,0-14.25,0c-3.73-0.95-7.53-1.68-11.17-2.89
		c-17.62-5.89-29.67-18.2-37.72-34.4c-11.48-23.12-22.38-46.52-33.54-69.8c-0.53-1.11-1.11-2.19-1.9-3.75
		c-3.54,7.37-6.87,14.29-10.18,21.22c-7.52,15.76-15.04,31.52-22.55,47.27c-6.53,13.69-15.28,25.55-28.64,33.28
		c-18.93,10.95-38.49,10.39-57.82,1.51c-20.96-9.62-35.6-25.12-40.5-48.29c-2.54-12.02-0.4-23.94,3.32-35.42
		c10.76-33.2,31.44-57.19,65.21-68.52c12.64-4.24,25.68-4.78,38.85-3.14c8.16,1.02,15.79,0.77,20.58-7.62
		c1.32-2.32,1.51-4.11,0.34-6.53c-7.56-15.6-14.97-31.26-22.41-46.92c-0.53-1.12-1.14-2.25-1.39-3.45c-0.6-2.9,0.36-5.24,3.18-6.44
		c2.79-1.19,5.17-0.34,6.9,2.07c0.79,1.1,1.3,2.41,1.89,3.65c11.81,24.76,23.61,49.53,35.42,74.3c0.63,1.32,1.34,2.6,2.15,4.17
		c9.48-4.74,18.69-9.35,27.89-13.96c-33-68.92-65.85-137.51-99.1-206.96c-1.64,2.65-3.21,4.67-4.25,6.94
		c-5.92,12.87-6.52,26.47-3.63,39.96c1.99,9.3,5.31,18.43,9.09,27.19c5.92,13.73,12.77,27.07,19.11,40.62
		c0.75,1.61,1.49,3.78,0.99,5.28c-0.54,1.61-2.35,3.45-3.96,3.88c-1.58,0.42-3.62-0.74-5.42-1.33c-0.38-0.12-0.67-0.73-0.88-1.17
		c-9.45-20.87-21.46-40.65-28.03-62.75c-5.12-17.21-5.95-34.75,0.54-51.86c1.99-5.24,5.11-10.34,8.76-14.61
		c5.49-6.42,13.63-6.46,18.08,2.94c21.55,45.54,43.41,90.94,65.16,136.38c0.32,0.67,0.67,1.33,1.29,2.52
		c0.84-1.62,1.53-2.84,2.14-4.11c21.65-45.21,43.24-90.45,65.04-135.6c1.42-2.94,4.39-5.14,6.64-7.68
		C435.38,168,437.13,168,438.88,168z M359.05,412.62c0.68,1.53,1.21,2.77,1.78,3.98c9.27,19.47,18.5,38.97,27.85,58.4
		c6.44,13.36,12.29,27.09,19.77,39.84c14.06,23.95,38.49,31.69,64.28,21.38c19.26-7.7,40.75-28.9,36.26-58.16
		c-6.13-39.94-42.51-85-97.81-76.32c-6.08,0.95-12.34,0.62-17.81-2.72c-2.6-1.59-4.57-1.44-7.15-0.1
		C377.31,403.59,368.26,408.01,359.05,412.62z M335.9,390.77c-0.51,0.35-0.88,0.51-1.1,0.78c-6.66,7.88-15.24,10.3-25.22,9.06
		c-11.85-1.47-23.69-1.72-35.26,1.81c-30.84,9.4-49.64,30.8-59.72,60.62c-3.34,9.89-5.14,20.19-3.36,30.6
		c2.16,12.59,9.08,22.61,18.72,30.7c14.31,12.01,30.68,17.77,49.35,13.98c16.97-3.44,28.12-14.76,35.48-29.69
		c12.9-26.17,25.26-52.6,37.8-78.94c0.43-0.9,0.69-2.27,0.31-3.09C347.32,414.64,341.62,402.76,335.9,390.77z"/>
	<path d="M358.71,367.58c3.13,0.02,5.73,2.8,5.79,6.19c0.06,3.34-2.61,5.98-5.92,5.87c-3.3-0.11-5.61-2.72-5.57-6.28
		C353.04,370.21,355.65,367.56,358.71,367.58z"/>
	<path d="M427.14,421.49c18.98,0.18,32.62,7.61,43.4,20.47c8.87,10.58,16.52,22.08,19.29,35.86c4.63,23.09-13.73,44.04-37.22,42.81
		c-16.58-0.87-27.39-10.44-34.66-24.38c-6.62-12.7-12.53-25.76-18.74-38.66c-1.19-2.47-2.43-4.92-3.5-7.44
		c-4.46-10.43-0.64-19.9,9.94-24.04c3.92-1.53,8.07-2.58,12.2-3.44C421.49,421.9,425.25,421.71,427.14,421.49z M424.34,433.15
		c-2.47,0.54-7.4,1.34-12.17,2.69c-7.11,2.01-8.34,4.96-5.21,11.54c6.43,13.5,12.84,27.02,19.4,40.46c1.63,3.34,3.55,6.62,5.8,9.58
		c5.01,6.6,11.44,11.28,19.98,11.82c18.96,1.22,32-16.3,25.23-34.11c-4.25-11.17-10.51-21.23-19.13-29.65
		C449.51,436.97,439.13,432.58,424.34,433.15z"/>
	<path d="M229.29,483.29c0.55-3.18,0.69-6.5,1.73-9.51c5.92-17.21,15.05-32.41,29.91-43.34c17.22-12.66,36.01-12.59,55.03-4.79
		c9.55,3.92,13.06,13.29,8.76,22.68c-7.42,16.19-14.99,32.34-23.21,48.14c-6.17,11.87-15.69,20.24-29.47,22.61
		C249.84,522.89,229.59,505.82,229.29,483.29z M291.77,431.2c-9.17,0.71-17.49,3.31-24.58,8.78c-12.14,9.37-20.04,21.86-24.94,36.14
		c-3.51,10.24,0.19,20.6,8.61,27.02c8.27,6.31,19.4,6.82,28.45,1.27c6.05-3.71,10.31-9.05,13.36-15.32
		c7.1-14.56,14.09-29.18,21.03-43.82c2.53-5.35,1.42-8.37-4.17-10.03C303.72,433.52,297.7,432.52,291.77,431.2z"/>
</g>
</svg>
